<svg xmlns="http://www.w3.org/2000/svg" xmlns:xlink="http://www.w3.org/1999/xlink" width="500" zoomAndPan="magnify" viewBox="0 0 375 187.499995" height="250" preserveAspectRatio="xMidYMid meet" version="1.0"><defs><g/><clipPath id="d8bca0278e"><path d="M 314.453125 72.378906 L 374.5 72.378906 L 374.5 132.425781 L 314.453125 132.425781 Z M 314.453125 72.378906 " clip-rule="nonzero"/></clipPath><clipPath id="5b40e8b510"><path d="M 344.476562 72.378906 C 327.894531 72.378906 314.453125 85.820312 314.453125 102.402344 C 314.453125 118.984375 327.894531 132.425781 344.476562 132.425781 C 361.058594 132.425781 374.5 118.984375 374.5 102.402344 C 374.5 85.820312 361.058594 72.378906 344.476562 72.378906 Z M 344.476562 72.378906 " clip-rule="nonzero"/></clipPath><clipPath id="dbb91f90d7"><path d="M 0.453125 0.378906 L 60.5 0.378906 L 60.5 60.425781 L 0.453125 60.425781 Z M 0.453125 0.378906 " clip-rule="nonzero"/></clipPath><clipPath id="80a5be011f"><path d="M 30.476562 0.378906 C 13.894531 0.378906 0.453125 13.820312 0.453125 30.402344 C 0.453125 46.984375 13.894531 60.425781 30.476562 60.425781 C 47.058594 60.425781 60.5 46.984375 60.5 30.402344 C 60.5 13.820312 47.058594 0.378906 30.476562 0.378906 Z M 30.476562 0.378906 " clip-rule="nonzero"/></clipPath><clipPath id="77c7ec8e9a"><rect x="0" width="61" y="0" height="61"/></clipPath><clipPath id="74806b43a2"><rect x="0" width="346" y="0" height="117"/></clipPath><clipPath id="2cf40e3ea5"><rect x="0" width="159" y="0" height="94"/></clipPath><clipPath id="8b6205dba3"><path d="M 15.148438 8.621094 L 33.378906 8.621094 L 33.378906 26.851562 L 15.148438 26.851562 Z M 15.148438 8.621094 " clip-rule="nonzero"/></clipPath><clipPath id="d32a30ef80"><path d="M 24.265625 8.621094 C 19.230469 8.621094 15.148438 12.703125 15.148438 17.738281 C 15.148438 22.773438 19.230469 26.851562 24.265625 26.851562 C 29.296875 26.851562 33.378906 22.773438 33.378906 17.738281 C 33.378906 12.703125 29.296875 8.621094 24.265625 8.621094 Z M 24.265625 8.621094 " clip-rule="nonzero"/></clipPath><clipPath id="9e28e7e213"><path d="M 0.148438 0.621094 L 18.378906 0.621094 L 18.378906 18.851562 L 0.148438 18.851562 Z M 0.148438 0.621094 " clip-rule="nonzero"/></clipPath><clipPath id="e2d6b76ce9"><path d="M 9.265625 0.621094 C 4.230469 0.621094 0.148438 4.703125 0.148438 9.738281 C 0.148438 14.773438 4.230469 18.851562 9.265625 18.851562 C 14.296875 18.851562 18.378906 14.773438 18.378906 9.738281 C 18.378906 4.703125 14.296875 0.621094 9.265625 0.621094 Z M 9.265625 0.621094 " clip-rule="nonzero"/></clipPath><clipPath id="e9c33c6889"><rect x="0" width="19" y="0" height="19"/></clipPath><clipPath id="e527693ad9"><path d="M 18.746094 12 L 29.96875 12 L 29.96875 23.1875 L 18.746094 23.1875 Z M 18.746094 12 " clip-rule="nonzero"/></clipPath></defs><g clip-path="url(#d8bca0278e)"><g clip-path="url(#5b40e8b510)"><g transform="matrix(1, 0, 0, 1, 314, 72)"><g clip-path="url(#77c7ec8e9a)"><g clip-path="url(#dbb91f90d7)"><g clip-path="url(#80a5be011f)"><path fill="#8c52ff" d="M 0.453125 0.378906 L 60.5 0.378906 L 60.5 60.425781 L 0.453125 60.425781 Z M 0.453125 0.378906 " fill-opacity="1" fill-rule="nonzero"/></g></g></g></g></g></g><g transform="matrix(1, 0, 0, 1, 8, 6)"><g clip-path="url(#74806b43a2)"><g fill="#000000" fill-opacity="1"><g transform="translate(0.536155, 92.29084)"><g><path d="M 7.90625 -66.65625 L 23.328125 -66.65625 L 23.328125 0 L 7.90625 0 Z M 7.90625 -66.65625 "/></g></g></g><g fill="#000000" fill-opacity="1"><g transform="translate(29.098355, 92.29084)"><g><path d="M 38 -51.984375 C 44.34375 -51.984375 49.460938 -50.078125 53.359375 -46.265625 C 57.265625 -42.460938 59.21875 -36.816406 59.21875 -29.328125 L 59.21875 0 L 44.375 0 L 44.375 -27.046875 C 44.375 -31.109375 43.484375 -34.140625 41.703125 -36.140625 C 39.929688 -38.140625 37.363281 -39.140625 34 -39.140625 C 30.25 -39.140625 27.257812 -37.976562 25.03125 -35.65625 C 22.8125 -33.34375 21.703125 -29.898438 21.703125 -25.328125 L 21.703125 0 L 6.859375 0 L 6.859375 -51.234375 L 21.046875 -51.234375 L 21.046875 -45.234375 C 23.015625 -47.390625 25.457031 -49.050781 28.375 -50.21875 C 31.289062 -51.394531 34.5 -51.984375 38 -51.984375 Z M 38 -51.984375 "/></g></g></g><g fill="#000000" fill-opacity="1"><g transform="translate(92.221577, 92.29084)"><g><path d="M 39.890625 -2.46875 C 38.429688 -1.394531 36.640625 -0.585938 34.515625 -0.046875 C 32.390625 0.492188 30.148438 0.765625 27.796875 0.765625 C 21.703125 0.765625 16.988281 -0.785156 13.65625 -3.890625 C 10.332031 -7.003906 8.671875 -11.578125 8.671875 -17.609375 L 8.671875 -38.65625 L 0.765625 -38.65625 L 0.765625 -50.078125 L 8.671875 -50.078125 L 8.671875 -62.5625 L 23.515625 -62.5625 L 23.515625 -50.078125 L 36.28125 -50.078125 L 36.28125 -38.65625 L 23.515625 -38.65625 L 23.515625 -17.8125 C 23.515625 -15.644531 24.070312 -13.972656 25.1875 -12.796875 C 26.300781 -11.628906 27.875 -11.046875 29.90625 -11.046875 C 32.25 -11.046875 34.242188 -11.679688 35.890625 -12.953125 Z M 39.890625 -2.46875 "/></g></g></g><g fill="#000000" fill-opacity="1"><g transform="translate(129.352361, 92.29084)"><g><path d="M 57.03125 -25.421875 C 57.03125 -25.234375 56.9375 -23.898438 56.75 -21.421875 L 18 -21.421875 C 18.695312 -18.242188 20.347656 -15.734375 22.953125 -13.890625 C 25.554688 -12.054688 28.789062 -11.140625 32.65625 -11.140625 C 35.320312 -11.140625 37.6875 -11.535156 39.75 -12.328125 C 41.8125 -13.117188 43.734375 -14.375 45.515625 -16.09375 L 53.421875 -7.515625 C 48.597656 -1.992188 41.550781 0.765625 32.28125 0.765625 C 26.5 0.765625 21.382812 -0.359375 16.9375 -2.609375 C 12.5 -4.867188 9.070312 -8 6.65625 -12 C 4.25 -16 3.046875 -20.535156 3.046875 -25.609375 C 3.046875 -30.628906 4.234375 -35.15625 6.609375 -39.1875 C 8.992188 -43.21875 12.265625 -46.359375 16.421875 -48.609375 C 20.578125 -50.859375 25.226562 -51.984375 30.375 -51.984375 C 35.382812 -51.984375 39.921875 -50.90625 43.984375 -48.75 C 48.046875 -46.59375 51.234375 -43.5 53.546875 -39.46875 C 55.867188 -35.4375 57.03125 -30.753906 57.03125 -25.421875 Z M 30.46875 -40.75 C 27.101562 -40.75 24.273438 -39.796875 21.984375 -37.890625 C 19.703125 -35.992188 18.3125 -33.394531 17.8125 -30.09375 L 43.03125 -30.09375 C 42.53125 -33.320312 41.132812 -35.90625 38.84375 -37.84375 C 36.5625 -39.78125 33.769531 -40.75 30.46875 -40.75 Z M 30.46875 -40.75 "/></g></g></g><g fill="#000000" fill-opacity="1"><g transform="translate(186.763032, 92.29084)"><g><path d="M 59.703125 -51.234375 L 59.703125 -8.5625 C 59.703125 0.820312 57.253906 7.800781 52.359375 12.375 C 47.472656 16.945312 40.335938 19.234375 30.953125 19.234375 C 25.992188 19.234375 21.289062 18.628906 16.84375 17.421875 C 12.40625 16.210938 8.726562 14.46875 5.8125 12.1875 L 11.71875 1.53125 C 13.875 3.300781 16.601562 4.707031 19.90625 5.75 C 23.207031 6.800781 26.503906 7.328125 29.796875 7.328125 C 34.941406 7.328125 38.734375 6.164062 41.171875 3.84375 C 43.617188 1.53125 44.84375 -1.972656 44.84375 -6.671875 L 44.84375 -8.859375 C 40.976562 -4.597656 35.582031 -2.46875 28.65625 -2.46875 C 23.957031 -2.46875 19.65625 -3.5 15.75 -5.5625 C 11.851562 -7.632812 8.757812 -10.539062 6.46875 -14.28125 C 4.1875 -18.03125 3.046875 -22.347656 3.046875 -27.234375 C 3.046875 -32.117188 4.1875 -36.429688 6.46875 -40.171875 C 8.757812 -43.921875 11.851562 -46.828125 15.75 -48.890625 C 19.65625 -50.953125 23.957031 -51.984375 28.65625 -51.984375 C 36.082031 -51.984375 41.734375 -49.539062 45.609375 -44.65625 L 45.609375 -51.234375 Z M 31.609375 -14.65625 C 35.546875 -14.65625 38.765625 -15.8125 41.265625 -18.125 C 43.773438 -20.445312 45.03125 -23.484375 45.03125 -27.234375 C 45.03125 -30.972656 43.773438 -34 41.265625 -36.3125 C 38.765625 -38.632812 35.546875 -39.796875 31.609375 -39.796875 C 27.671875 -39.796875 24.429688 -38.632812 21.890625 -36.3125 C 19.359375 -34 18.09375 -30.972656 18.09375 -27.234375 C 18.09375 -23.484375 19.359375 -20.445312 21.890625 -18.125 C 24.429688 -15.8125 27.671875 -14.65625 31.609375 -14.65625 Z M 31.609375 -14.65625 "/></g></g></g><g fill="#000000" fill-opacity="1"><g transform="translate(250.743153, 92.29084)"><g><path d="M 21.046875 -44.46875 C 22.816406 -46.945312 25.207031 -48.816406 28.21875 -50.078125 C 31.238281 -51.347656 34.71875 -51.984375 38.65625 -51.984375 L 38.65625 -38.28125 C 37.007812 -38.40625 35.898438 -38.46875 35.328125 -38.46875 C 31.078125 -38.46875 27.742188 -37.273438 25.328125 -34.890625 C 22.910156 -32.515625 21.703125 -28.945312 21.703125 -24.1875 L 21.703125 0 L 6.859375 0 L 6.859375 -51.234375 L 21.046875 -51.234375 Z M 21.046875 -44.46875 "/></g></g></g><g fill="#000000" fill-opacity="1"><g transform="translate(288.445357, 92.29084)"><g><path d="M 27.515625 -51.984375 C 35.453125 -51.984375 41.546875 -50.09375 45.796875 -46.3125 C 50.054688 -42.539062 52.1875 -36.847656 52.1875 -29.234375 L 52.1875 0 L 38.28125 0 L 38.28125 -6.375 C 35.488281 -1.613281 30.28125 0.765625 22.65625 0.765625 C 18.726562 0.765625 15.316406 0.0976562 12.421875 -1.234375 C 9.535156 -2.566406 7.328125 -4.40625 5.796875 -6.75 C 4.273438 -9.101562 3.515625 -11.773438 3.515625 -14.765625 C 3.515625 -19.523438 5.304688 -23.269531 8.890625 -26 C 12.484375 -28.726562 18.023438 -30.09375 25.515625 -30.09375 L 37.328125 -30.09375 C 37.328125 -33.320312 36.34375 -35.8125 34.375 -37.5625 C 32.40625 -39.3125 29.453125 -40.1875 25.515625 -40.1875 C 22.785156 -40.1875 20.101562 -39.753906 17.46875 -38.890625 C 14.832031 -38.035156 12.597656 -36.878906 10.765625 -35.421875 L 5.421875 -45.796875 C 8.210938 -47.765625 11.5625 -49.285156 15.46875 -50.359375 C 19.375 -51.441406 23.390625 -51.984375 27.515625 -51.984375 Z M 26.375 -9.234375 C 28.914062 -9.234375 31.171875 -9.820312 33.140625 -11 C 35.109375 -12.175781 36.503906 -13.90625 37.328125 -16.1875 L 37.328125 -21.421875 L 27.140625 -21.421875 C 21.046875 -21.421875 18 -19.421875 18 -15.421875 C 18 -13.515625 18.742188 -12.003906 20.234375 -10.890625 C 21.722656 -9.785156 23.769531 -9.234375 26.375 -9.234375 Z M 26.375 -9.234375 "/></g></g></g></g></g><g transform="matrix(1, 0, 0, 1, 7, 86)"><g clip-path="url(#2cf40e3ea5)"><g fill="#8c52ff" fill-opacity="1"><g transform="translate(1.539614, 74.047646)"><g><path d="M 47.5625 -9.890625 L 47.5625 0 L 6.3125 0 L 6.3125 -53.28125 L 46.578125 -53.28125 L 46.578125 -43.375 L 18.578125 -43.375 L 18.578125 -31.8125 L 43.3125 -31.8125 L 43.3125 -22.21875 L 18.578125 -22.21875 L 18.578125 -9.890625 Z M 47.5625 -9.890625 "/></g></g></g><g fill="#8c52ff" fill-opacity="1"><g transform="translate(50.462454, 74.047646)"><g><path d="M 40.265625 0 L 29.984375 -14.84375 L 18.640625 -14.84375 L 18.640625 0 L 6.3125 0 L 6.3125 -53.28125 L 29.375 -53.28125 C 34.09375 -53.28125 38.191406 -52.492188 41.671875 -50.921875 C 45.148438 -49.347656 47.828125 -47.113281 49.703125 -44.21875 C 51.578125 -41.320312 52.515625 -37.894531 52.515625 -33.9375 C 52.515625 -29.988281 51.5625 -26.578125 49.65625 -23.703125 C 47.757812 -20.835938 45.0625 -18.644531 41.5625 -17.125 L 53.5 0 Z M 40.03125 -33.9375 C 40.03125 -36.9375 39.066406 -39.234375 37.140625 -40.828125 C 35.210938 -42.429688 32.394531 -43.234375 28.6875 -43.234375 L 18.640625 -43.234375 L 18.640625 -24.65625 L 28.6875 -24.65625 C 32.394531 -24.65625 35.210938 -25.46875 37.140625 -27.09375 C 39.066406 -28.71875 40.03125 -31 40.03125 -33.9375 Z M 40.03125 -33.9375 "/></g></g></g><g fill="#8c52ff" fill-opacity="1"><g transform="translate(104.254827, 74.047646)"><g><path d="M 29.375 -53.28125 C 34.09375 -53.28125 38.191406 -52.492188 41.671875 -50.921875 C 45.148438 -49.347656 47.828125 -47.113281 49.703125 -44.21875 C 51.578125 -41.320312 52.515625 -37.894531 52.515625 -33.9375 C 52.515625 -30.03125 51.578125 -26.617188 49.703125 -23.703125 C 47.828125 -20.785156 45.148438 -18.550781 41.671875 -17 C 38.191406 -15.457031 34.09375 -14.6875 29.375 -14.6875 L 18.640625 -14.6875 L 18.640625 0 L 6.3125 0 L 6.3125 -53.28125 Z M 28.6875 -24.734375 C 32.394531 -24.734375 35.210938 -25.53125 37.140625 -27.125 C 39.066406 -28.726562 40.03125 -31 40.03125 -33.9375 C 40.03125 -36.9375 39.066406 -39.234375 37.140625 -40.828125 C 35.210938 -42.429688 32.394531 -43.234375 28.6875 -43.234375 L 18.640625 -43.234375 L 18.640625 -24.734375 Z M 28.6875 -24.734375 "/></g></g></g></g></g><g clip-path="url(#8b6205dba3)"><g clip-path="url(#d32a30ef80)"><g transform="matrix(1, 0, 0, 1, 15, 8)"><g clip-path="url(#e9c33c6889)"><g clip-path="url(#9e28e7e213)"><g clip-path="url(#e2d6b76ce9)"><path fill="#8c52ff" d="M 0.148438 0.621094 L 18.378906 0.621094 L 18.378906 18.851562 L 0.148438 18.851562 Z M 0.148438 0.621094 " fill-opacity="1" fill-rule="nonzero"/></g></g></g></g></g></g><g clip-path="url(#e527693ad9)"><path fill="#ffffff" d="M 23.816406 17.328125 C 23.988281 17.328125 24.128906 17.21875 24.238281 17.128906 C 24.355469 17.035156 24.457031 16.914062 24.535156 16.792969 C 24.875 16.269531 24.761719 15.351562 24.765625 14.511719 C 24.769531 14.097656 24.746094 13.679688 24.804688 13.304688 C 24.914062 12.664062 25.414062 12.132812 26.082031 12.054688 C 26.496094 12.003906 26.820312 12.121094 27.097656 12.277344 C 27.367188 12.425781 27.605469 12.609375 27.863281 12.769531 C 28.171875 12.953125 28.441406 13.113281 28.730469 13.296875 C 29.011719 13.476562 29.292969 13.640625 29.488281 13.929688 C 29.691406 14.214844 29.753906 14.582031 29.753906 15.054688 C 29.753906 17.3125 29.757812 19.695312 29.769531 21.867188 C 29.773438 22.734375 29.257812 23.269531 28.53125 23.40625 C 28.09375 23.492188 27.703125 23.339844 27.421875 23.175781 C 27.109375 22.996094 26.832031 22.808594 26.5625 22.648438 C 26.277344 22.480469 26.003906 22.304688 25.699219 22.121094 C 25.25 21.851562 24.894531 21.550781 24.796875 20.941406 C 24.765625 20.742188 24.773438 20.519531 24.773438 20.273438 C 24.773438 19.824219 24.769531 19.363281 24.75 18.90625 C 24.652344 18.890625 24.5625 18.957031 24.496094 19.003906 C 24.132812 19.25 23.878906 19.613281 23.816406 20.160156 C 23.792969 20.375 23.820312 20.617188 23.816406 20.878906 C 23.808594 21.375 23.855469 21.863281 23.777344 22.257812 C 23.699219 22.648438 23.503906 22.941406 23.210938 23.160156 C 22.9375 23.367188 22.503906 23.519531 22.0625 23.449219 C 21.84375 23.414062 21.679688 23.339844 21.519531 23.257812 C 21.363281 23.171875 21.226562 23.0625 21.070312 22.96875 C 20.769531 22.785156 20.453125 22.617188 20.148438 22.425781 C 19.546875 22.050781 18.84375 21.773438 18.773438 20.871094 C 18.753906 20.632812 18.777344 20.394531 18.773438 20.152344 C 18.742188 18.425781 18.757812 16.761719 18.757812 15.0625 C 18.757812 14.566406 18.769531 14.085938 18.75 13.632812 C 18.726562 13.144531 18.882812 12.804688 19.117188 12.53125 C 19.34375 12.265625 19.683594 12.0625 20.089844 12.011719 C 20.4375 11.972656 20.796875 12.082031 21.015625 12.21875 C 21.605469 12.59375 22.171875 12.941406 22.753906 13.3125 C 22.871094 13.386719 22.996094 13.453125 23.105469 13.53125 C 23.597656 13.863281 23.792969 14.328125 23.792969 15.109375 C 23.792969 15.484375 23.792969 15.863281 23.792969 16.242188 C 23.792969 16.605469 23.777344 16.972656 23.816406 17.328125 Z M 23.226562 17.273438 C 22.984375 17.117188 22.746094 16.964844 22.507812 16.816406 C 22.140625 16.558594 21.851562 16.238281 21.78125 15.691406 C 21.738281 15.351562 21.75 14.925781 21.765625 14.535156 C 21.777344 14.269531 21.761719 13.917969 21.757812 13.648438 C 21.757812 13.546875 21.761719 13.394531 21.636719 13.441406 C 21.289062 13.578125 20.972656 13.9375 20.855469 14.335938 C 20.777344 14.601562 20.8125 14.925781 20.816406 15.238281 C 20.820312 15.644531 20.804688 16.066406 20.800781 16.480469 C 20.800781 16.636719 20.816406 16.792969 20.816406 16.953125 C 20.816406 17.78125 20.800781 18.582031 20.816406 19.394531 C 20.832031 20.167969 20.816406 20.980469 20.824219 21.78125 C 20.824219 21.875 20.800781 21.992188 20.863281 22.074219 C 21.011719 22.074219 21.125 21.96875 21.222656 21.882812 C 21.535156 21.617188 21.742188 21.253906 21.773438 20.726562 C 21.820312 20.015625 21.671875 19.054688 21.878906 18.492188 C 22.027344 18.082031 22.332031 17.773438 22.730469 17.613281 C 22.9375 17.535156 23.171875 17.507812 23.433594 17.445312 C 23.414062 17.34375 23.300781 17.316406 23.226562 17.273438 Z M 27.351562 21.699219 C 27.484375 21.558594 27.601562 21.382812 27.664062 21.183594 C 27.765625 20.832031 27.726562 20.332031 27.726562 19.878906 C 27.726562 18.296875 27.71875 16.8125 27.71875 15.238281 C 27.71875 14.9375 27.703125 14.628906 27.710938 14.3125 C 27.714844 14.210938 27.710938 14.0625 27.710938 13.863281 C 27.710938 13.753906 27.746094 13.453125 27.65625 13.449219 C 27.5625 13.449219 27.378906 13.601562 27.3125 13.65625 C 27.054688 13.875 26.839844 14.207031 26.800781 14.613281 C 26.761719 15.019531 26.800781 15.5 26.800781 15.972656 C 26.800781 16.441406 26.832031 16.925781 26.800781 17.34375 C 26.75 18.046875 26.316406 18.503906 25.757812 18.683594 C 25.574219 18.742188 25.371094 18.742188 25.140625 18.789062 C 25.152344 18.890625 25.257812 18.898438 25.316406 18.957031 C 25.8125 19.289062 26.375 19.515625 26.648438 20.074219 C 26.832031 20.449219 26.808594 20.992188 26.808594 21.539062 C 26.808594 21.707031 26.78125 21.890625 26.855469 22.027344 C 27.054688 21.992188 27.21875 21.84375 27.351562 21.699219 Z M 27.351562 21.699219 " fill-opacity="1" fill-rule="evenodd"/></g></svg>